<?xml version="1.0" encoding="utf-8"?>
<!-- Generator: Adobe Illustrator 21.1.0, SVG Export Plug-In . SVG Version: 6.00 Build 0)  -->
<svg version="1.1" id="Layer_1" xmlns="http://www.w3.org/2000/svg" xmlns:xlink="http://www.w3.org/1999/xlink" x="0px" y="0px"
	 viewBox="0 0 138 185" style="enable-background:new 0 0 138 185;" xml:space="preserve">
<style type="text/css">
	.st0{fill:#8A7F7B;}
	.st1{fill:#DCD5D3;}
	.st2{fill:#DCD4D2;}
	.st3{fill:#3A3A49;}
	.st4{fill:#49495D;}
	.st5{fill:#FDFCFC;}
</style>
<g>
	<path class="st0" d="M120.7,84.3c3.3,1,4.3,3.3,3.9,6.5c-1.4,13-2.8,26-4.2,39.1c-0.4,3.5-1.3,6.6-5.7,6.8c-30.7,0-61.4,0-92.1,0
		c-4-0.2-5.8-2.2-6.1-6.3c-1.2-13.3-2.8-26.5-4.3-39.7c-0.4-3.6,0.8-5.8,4.5-6.4C51.4,84.2,86.1,84.2,120.7,84.3z M70.8,92.5
		c-9.9,0-17.9,7.8-18,17.6c-0.1,9.9,8.1,18.3,18,18.3c9.7,0,17.9-8.1,18-17.8C88.9,100.5,80.9,92.5,70.8,92.5z"/>
	<path class="st1" d="M22.7,136.7c30.7,0,61.4,0,92.1,0c-1.4,12.7-2.8,25.5-4.3,38.2c-0.8,7-3.7,9.6-10.9,9.6
		c-20.6,0.1-41.3,0.1-61.9,0c-7.4,0-10.2-2.8-10.9-10.1C25.5,161.8,24.1,149.2,22.7,136.7z"/>
	<path class="st2" d="M120.7,84.3c-34.6,0-69.3,0-103.9,0c-1.3-11.8-2.6-23.6-4-35.5c7.3-0.1,14.6-0.2,22-0.2
		c30,0,59.9,0.1,89.9,0.2C123.4,60.6,122,72.4,120.7,84.3z"/>
	<path class="st3" d="M124.7,48.8c-30-0.1-59.9-0.1-89.9-0.2c-7.3,0-14.6,0.1-22,0.2c-3.8,0-7.6,0-11.7,0c-0.1-3.9-2.1-7.2,2.5-9.2
		c0.9-0.4,0.9-3.6,0.9-5.6c0.1-9.7,0.1-9.7,9.9-9.6c0.7,0,1.3,0,2,0.1c34.8,0,69.7,0,104.5,0c11.7-0.3,11.6-0.3,12,11.1
		c0.1,1.7,1.9,3.3,2.5,5c0.8,2.2,1.1,4.5,1.8,7.5C132.5,48.4,128.6,48.6,124.7,48.8z"/>
	<path class="st4" d="M121,24.5c-34.8,0-69.7,0-104.5,0c1.1-5.2,2.5-10.3,3.4-15.6c0.6-3.5,2.2-4.6,5.7-4.5c19,0.1,37.9,0.1,56.9,0
		c2.6,0,5.6,1.1,7-2.9c0.4-1,4.3-1,6.5-0.8c3.4,0.3,7.5-1.9,9.9,3.1c0.5,1,4,0.8,6.1,0.6c3.5-0.3,5.1,1.1,5.7,4.5
		C118.5,14.2,119.9,19.3,121,24.5z"/>
	<path class="st5" d="M70.8,92.5c10.1,0,18.1,8.1,18,18.1c-0.1,9.7-8.3,17.8-18,17.8c-9.9,0-18.1-8.3-18-18.3
		C52.9,100.3,60.8,92.5,70.8,92.5z"/>
</g>
</svg>
