<svg id="Layer_1" data-name="Layer 1" xmlns="http://www.w3.org/2000/svg" viewBox="0 0 487.47 288.82"><defs><style>.cls-1,.cls-3{fill:#009b67;}.cls-2{fill:#fff;}.cls-3{fill-rule:evenodd;}</style></defs><title>JD Irving Limited_TM</title><path class="cls-1" d="M464.7,237.39h-3.83V248h-2.2V237.39h-3.83v-1.81h9.85Zm9.1,7.32,3.5-9.13h3.37V248h-2.2V237.91h-.06L474.53,248H473l-3.89-10.09h-.06V248h-2.2V235.58h3.38Z" transform="translate(-6 -15.32)"/><polyline class="cls-2" points="0 89.76 242.34 0 487.47 89.54 487.47 198.28 241.92 288.82 0 199.25 0 89.54"/><polygon class="cls-1" points="41.42 108.95 23.56 108.95 23.56 179.59 41.42 179.59 41.42 108.95 41.42 108.95"/><path class="cls-3" d="M74.61,194.91h17.5V167.26h18.45c13.21,0,13.93,3.74,13.93,13.38,0,7.28.71,10.92,1.9,14.27h19.76V193c-3.81-1.18-3.81-3.74-3.81-14.07,0-13.18-3.81-15.35-10.83-17.91,8.45-2.36,13.21-9.05,13.21-16.82,0-6.1-4.17-20-26.9-20H74.61v70.64Zm17.5-39.55V136.46h22.26c10.48,0,12.5,5.51,12.5,9.25,0,7-4.52,9.64-13.81,9.64Z" transform="translate(-6 -15.32)"/><polygon class="cls-1" points="191.42 162.47 191.19 162.47 172.85 108.95 153.69 108.95 182.5 179.59 199.52 179.59 228.57 108.95 210 108.95 191.42 162.47 191.42 162.47"/><polygon class="cls-1" points="264.42 108.95 246.56 108.95 246.56 179.59 264.42 179.59 264.42 108.95 264.42 108.95"/><polygon class="cls-1" points="344.91 158.14 344.67 158.14 310.74 108.95 291.93 108.95 291.93 179.59 308.6 179.59 308.6 129.22 308.84 129.22 343.72 179.59 361.58 179.59 361.58 108.95 344.91 108.95 344.91 158.14 344.91 158.14"/><path class="cls-1" d="M436.14,168.74H456c-3.69,14.27-16.79,15.54-20.71,15.54-12.14,0-24.88-5-24.88-24.3,0-18.11,11.79-25.38,24.53-25.38s18.69,8.85,18.69,11.61H471.5c-.95-9.74-11.31-23.81-37.5-23.81-28.81-.1-41.79,18.11-41.79,37.39,0,24.79,18.69,37,39.29,37,15.59,0,22.14-6.39,26.67-10.72l1.79,8.86h11.91V156.83H436.14v11.91Z" transform="translate(-6 -15.32)"/><polygon class="cls-1" points="13.44 94.47 475.41 94.47 242.28 12.75 13.44 94.47 13.44 94.47"/><polygon class="cls-1" points="475.41 194.15 13.44 194.15 241.92 275.69 475.41 194.15 475.41 194.15"/></svg>