<svg xmlns="http://www.w3.org/2000/svg" xmlns:xlink="http://www.w3.org/1999/xlink" width="22px" height="29px" viewBox="0 0 22 29" version="1.1"><g id="Page-1" stroke="none" stroke-width="1" fill="none" fill-rule="evenodd"><g id="Schedule-Module" transform="translate(-139.000000, -186.000000)" fill-rule="nonzero"><g id="documents-flat" transform="translate(139.000000, 186.000000)"><path d="M18.3190539 26.0446613L18.3190539 26.7469893C18.3190539 27.5078445 17.7337806 28.0931178 16.9729254 28.0931178L0.99496459 28.0931178C0.409691302 28.0931178 0 27.6248992 0 27.0396259L0 2.39962048C0 1.81434719 0.46821863 1.34612856 0.99496459 1.34612856L1.98992918 1.34612856 18.3190539 26.0446613Z" id="Shape" fill="#D3D5DD"/><path d="M21.0698384 5.32598692L21.0698384 25.0496967C21.0698384 25.5764427 20.6016197 26.0446613 20.0748738 26.0446613L18.3190539 26.0446613 3.0434211 26.0446613C2.51667514 26.0446613 2.10698384 25.6934973 2.04845651 25.0496967L2.04845651 1.34612856 2.04845651 0.99496459C2.04845651 0.46821863 2.51667514 0 3.0434211 0L15.8023788 0 21.0698384 5.32598692Z" id="Shape" fill="#FFFFFF"/><polygon id="Shape" fill="#D3D5DD" points="16.3291247 0.526745959 21.0698384 5.32598692 15.8023788 5.32598692 15.8023788 0"/><path d="M18.0849446 8.77909932C18.4361086 8.77909932 18.7287452 9.01320864 18.7287452 9.36437261 18.7287452 9.65700925 18.4361086 9.9496459 18.0849446 9.9496459L5.32598692 9.9496459C4.97482295 9.9496459 4.6821863 9.65700925 4.6821863 9.36437261 4.6821863 9.01320864 4.97482295 8.77909932 5.32598692 8.77909932L18.0849446 8.77909932Z" id="Shape" fill="#D3D5DD"/><path d="M17.9093626 11.7054658C18.2605266 11.7054658 18.5531632 11.9981024 18.5531632 12.290739 18.5531632 12.5833757 18.2605266 12.8760123 17.9093626 12.8760123L5.20893226 12.8760123C4.85776829 12.8760123 4.56513165 12.5833757 4.56513165 12.290739 4.56513165 11.9981024 4.85776829 11.7054658 5.20893226 11.7054658L17.9093626 11.7054658Z" id="Shape" fill="#D3D5DD"/><path d="M17.9093626 14.6318322C18.2605266 14.6318322 18.5531632 14.9244688 18.5531632 15.2171055 18.5531632 15.5097421 18.2605266 15.8023788 17.9093626 15.8023788L5.20893226 15.8023788C4.85776829 15.8023788 4.56513165 15.5097421 4.56513165 15.2171055 4.56513165 14.9244688 4.85776829 14.6318322 5.20893226 14.6318322L17.9093626 14.6318322Z" id="Shape" fill="#D3D5DD"/><path d="M17.9093626 17.5581986C18.2605266 17.5581986 18.5531632 17.8508353 18.5531632 18.1434719 18.5531632 18.4361086 18.2605266 18.7287452 17.9093626 18.7287452L5.20893226 18.7287452C4.85776829 18.7287452 4.56513165 18.4361086 4.56513165 18.1434719 4.56513165 17.8508353 4.85776829 17.5581986 5.20893226 17.5581986L17.9093626 17.5581986Z" id="Shape" fill="#D3D5DD"/><path d="M12.2322117 4.09691302C12.5833757 4.09691302 12.8760123 4.33102233 12.8760123 4.6821863 12.8760123 4.97482295 12.5833757 5.26745959 12.2322117 5.26745959L5.32598692 5.26745959C4.97482295 5.26745959 4.6821863 4.97482295 4.6821863 4.6821863 4.6821863 4.33102233 4.97482295 4.09691302 5.32598692 4.09691302L12.2322117 4.09691302Z" id="Shape" fill="#D3D5DD"/></g></g></g></svg>