<?xml version="1.0" encoding="utf-8"?>
<!-- Generator: Adobe Illustrator 21.1.0, SVG Export Plug-In . SVG Version: 6.00 Build 0)  -->
<svg version="1.1" id="Layer_1" xmlns="http://www.w3.org/2000/svg" xmlns:xlink="http://www.w3.org/1999/xlink" x="0px" y="0px"
	 viewBox="0 0 482 418" style="enable-background:new 0 0 482 418;" xml:space="preserve">
<style type="text/css">
	.st0{fill:#FEFFFF;}
	.st1{fill:#23C1DF;}
	.st2{fill:#26C1DF;}
</style>
<g>
	<g>
		<path class="st0" d="M81.1,161.9c1.7,11.7,2.7,23.5,5.1,35c6.2,29.7,20.2,55.1,43.2,75.2c24.8,21.7,53.9,34.9,85.7,41.7
			c17.8,3.8,36.1,5.2,54.3,7.4c13.6,1.6,27.2,1.3,40.6-2.6c1.7-0.5,4.3,0.9,6.2,2c13.7,8.4,26.9,18,41.1,25.4
			c25.6,13.4,53.4,20.3,82.1,23.1c8.5,0.8,11.6-3.6,8.5-11.2c-0.4-1-1.3-1.9-2-2.8c-5.4-7-10.7-14-16.1-21
			c-8.6-11.3-16.5-22.8-19.1-37.4c-1.5-8.3,0.2-13.4,7.4-18.9c43-33,68.1-75.1,63-131.3c-1.6-17.4-6.6-33.9-14.7-49.4
			c-17.7-33.5-45.5-56.1-78.8-72.5c-30.8-15.3-64-21.5-98-22.1c-14.9-0.3-29.9,1.5-44.7,3.7c-45.7,6.8-85.9,25.5-119.3,57.7
			C97.8,90.5,82.3,122.8,81.1,161.9z M58,133.6c-0.4,0.2-1.3,0.6-1.9,1.3c-9.4,9.2-20,17.5-27.9,27.8C-0.7,200.3-6.3,241.4,13.6,285
			c10.3,22.5,26.5,40.2,46.7,54.3c4.2,2.9,5.9,6.2,4.7,10.9c-1.7,6.4-2.7,13.3-5.8,19c-6.6,12.3-14.6,23.8-21.6,35.8
			c-1.6,2.7-2.9,7.9-1.6,9.3c2,2.1,6.5,2.8,9.8,2.5c5.6-0.6,11-2.5,16.5-3.9c28.5-7.5,56.1-17.1,80.3-34.4
			c6.2-4.5,12.3-6.4,19.8-5.8c40.3,2.9,78.5-4.6,114-24.5c1.5-0.8,2.9-1.7,5.3-3.2c-2.3-0.5-3.2-0.8-4.2-0.9
			c-14.1-1.4-28.1-2.7-42.2-4.1c-6.9-0.7-14.2-2.9-20.7-1.7c-22.5,4.2-45,4.7-67.5,1.3c-4.3-0.6-7.5,0.7-10.5,3.3
			c-10.6,9.3-22.5,16.5-35.4,22.3c-1.8,0.8-3.6,1.3-6.3,2.3c0.9-11.2,1.4-21.6,2.7-31.9c0.7-5.9-0.5-9.8-5.5-13.6
			c-12.3-9.4-24.9-18.5-35.7-29.5c-14.8-15.1-22.2-34.1-22.6-55.6c-0.3-19.2,6-36.2,17-51.7c3-4.2,6.4-9.2,6.8-14.1
			C58.6,158.8,58,146.3,58,133.6z"/>
		<path class="st1" d="M81.1,161.9c1.2-39.1,16.7-71.4,44.5-98.1C159,31.6,199.2,12.9,244.9,6.1c14.8-2.2,29.8-4,44.7-3.7
			c34.1,0.7,67.2,6.8,98,22.1C420.8,41,448.6,63.5,466.3,97c8.2,15.5,13.2,32,14.7,49.4c5,56.2-20.1,98.3-63,131.3
			c-7.1,5.5-8.9,10.6-7.4,18.9c2.6,14.5,10.5,26.1,19.1,37.4c5.4,7,10.7,14,16.1,21c0.7,0.9,1.5,1.8,2,2.8c3.1,7.6,0,12.1-8.5,11.2
			c-28.7-2.8-56.5-9.7-82.1-23.1c-14.2-7.4-27.4-17-41.1-25.4c-1.8-1.1-4.4-2.5-6.2-2c-13.4,3.9-26.9,4.2-40.6,2.6
			c-18.1-2.2-36.4-3.6-54.3-7.4c-31.9-6.7-60.9-20-85.7-41.7c-23-20.2-37.1-45.5-43.2-75.2C83.8,185.4,82.7,173.6,81.1,161.9z"/>
		<path class="st2" d="M58,133.6c0,12.7,0.6,25.3-0.3,37.7c-0.4,4.9-3.8,9.8-6.8,14.1c-11,15.6-17.3,32.5-17,51.7
			c0.3,21.5,7.8,40.4,22.6,55.6c10.7,11,23.4,20.2,35.7,29.5c5,3.8,6.2,7.7,5.5,13.6c-1.3,10.3-1.8,20.7-2.7,31.9
			c2.7-1,4.5-1.5,6.3-2.3c12.9-5.7,24.8-12.9,35.4-22.3c3-2.6,6.2-3.9,10.5-3.3c22.6,3.4,45,2.9,67.5-1.3c6.6-1.2,13.8,1,20.7,1.7
			c14.1,1.3,28.1,2.7,42.2,4.1c1,0.1,1.9,0.4,4.2,0.9c-2.4,1.5-3.8,2.4-5.3,3.2c-35.5,19.8-73.6,27.4-114,24.5
			c-7.5-0.6-13.6,1.3-19.8,5.8c-24.2,17.3-51.8,26.9-80.3,34.4c-5.5,1.4-10.9,3.3-16.5,3.9c-3.3,0.4-7.8-0.4-9.8-2.5
			c-1.3-1.4,0-6.6,1.6-9.3c7-12.1,15-23.6,21.6-35.8c3.1-5.7,4.1-12.6,5.8-19c1.2-4.7-0.5-8-4.7-10.9
			c-20.2-14.1-36.4-31.8-46.7-54.3c-19.9-43.7-14.3-84.7,14.6-122.4c7.9-10.3,18.5-18.6,27.9-27.8C56.7,134.2,57.6,133.8,58,133.6z"
			/>
	</g>
</g>
</svg>
