<?xml version="1.0" encoding="utf-8"?>
<!-- Generator: Adobe Illustrator 21.1.0, SVG Export Plug-In . SVG Version: 6.00 Build 0)  -->
<svg version="1.1" id="Layer_1" xmlns="http://www.w3.org/2000/svg" xmlns:xlink="http://www.w3.org/1999/xlink" x="0px" y="0px"
	 viewBox="0 0 254 169" style="enable-background:new 0 0 254 169;" xml:space="preserve">
<style type="text/css">
	.st0{fill:#424C72;}
	.st1{fill:#FFFFFF;}
	.st2{fill:#00C0A5;}
</style>
<g>
	<path class="st0" d="M231.9,18c0.2,31.3,0.1,82.8,0.1,114.1c0,2,0,3.9,0,6.2c-69.8,0-139.1,0-209,0c-0.1-1.9-0.2-3.6-0.2-5.2
		c0-39.2,0-78.3,0-117.5C22.8,5,26.9,0.9,37.6,0.9c18.3,0,156.2,0,174.6,0C232.7,0.9,231.9,18,231.9,18z M209.2,16.8
		c-20.2-0.2-144.6,0-164.7-0.2c-4.4-0.1-5.6,1.3-5.6,5.6c0.1,31.8,0,63.6,0.1,95.4c0,1.6,0.2,3.2,0.3,4.9c59,0,117.5,0,176,0
		c0-27.9,0-73.4,0-100.9C215.3,16.8,209.2,16.8,209.2,16.8z"/>
	<path class="st1" d="M209.2,16.8c-20.2-0.2-144.6,0-164.7-0.2c-4.4-0.1-5.6,1.3-5.6,5.6c0.1,31.8,0,63.6,0.1,95.4
		c0,1.6,0.2,3.2,0.3,4.9c59,0,117.5,0,176,0c0-27.9,0-73.4,0-100.9C215.3,16.8,209.2,16.8,209.2,16.8z"/>
	<path class="st0" d="M253.3,149.5c0,2.9,0.2,5.5,0,8.2c-0.4,5.2-4.2,9.3-9.4,10.2c-1.8,0.3-3.6,0.3-5.5,0.3c-74,0-148,0-221.9,0
		c-2,0-4,0-6-0.4c-7.1-1.4-12-11.1-8.7-17.4c0.5-1.1,3.1-1.5,4.7-1.5c23.5-0.1,47-0.1,70.5-0.1c7.5,0,15-0.1,22.5,0.1
		c1.5,0,3.7,0.4,4.4,1.4c2.7,3.8,6.5,4.4,10.5,4.5c8.7,0.1,17.3,0.1,26,0c4.1,0,8-0.5,10.5-4.5c0.6-0.9,2.2-1.4,3.4-1.4
		c32.3,0,64.6,0,97,0C251.7,148.8,252.2,149.1,253.3,149.5z"/>
</g>
<g id="Page-1">
	<g id="Schedule-Module" transform="translate(-607.000000, -291.000000)">
		<g id="wrench-flat" transform="translate(607.000000, 291.393933)">
			<g id="XMLID_4_">
				<g id="Group">
					<path id="Shape" class="st2" d="M168.9,37.3c3.2,7,2,15.7-3.7,21.6c-5.5,5.7-13.3,7-20.1,4.1l-2.9,3.1l-3.7-3.5l0,0
						c0.5-0.5,0.9-1.4,0.9-2c0-0.6-0.2-1.5-0.9-2c-1.1-1.1-2.9-1.1-4,0l-19.7,19.7l-3.2-3.7L134.5,52c-2.4-6.7-0.9-14.5,4.4-19.8
						c5.7-5.9,14-7,20.7-4l-9.6,9.6c-2.6,2.6-2.6,6.7,0,9.2c2.6,2.6,6.7,2.6,9.2,0L168.9,37.3z"/>
					<path id="Shape_1_" class="st2" d="M142.3,66.2l-22.8,22.4c2,6.6,0.5,14.2-4.6,19.4c-5.7,5.9-14,7-20.7,4l11-11.1
						c2.6-2.6,2.6-6.7,0-9.2c-2.6-2.6-6.7-2.6-9.2,0l-11,11c-3.2-7-2-15.7,3.7-21.6c5.7-5.7,13.7-7,20.6-4l2.4-2.4l3.2,3.2
						c-0.5,0.5-0.9,1.4-0.9,2c0,0.6,0.2,1.5,0.9,2c1.1,1.1,2.9,1.1,4,0l19.7-19.6L142.3,66.2z"/>
					<path id="Shape_2_" class="st2" d="M138.6,58.5c0.5,0.5,0.9,1.4,0.9,2s-0.2,1.5-0.9,2l0,0l-19.7,19.4c-1.1,1.1-2.9,1.1-4,0
						c-0.5-0.5-0.9-1.4-0.9-2c0-0.6,0.2-1.5,0.9-2l19.7-19.7C135.7,57.5,137.5,57.5,138.6,58.5z"/>
				</g>
			</g>
		</g>
	</g>
</g>
</svg>
